<svg id="Layer_1" data-name="Layer 1" xmlns="http://www.w3.org/2000/svg" xmlns:xlink="http://www.w3.org/1999/xlink" viewBox="0 0 100 100">
  <defs>
    <linearGradient id="linear-gradient" x1="67.10566" y1="3.00258" x2="32.89434" y2="96.99742" gradientUnits="userSpaceOnUse">
      <stop offset="0.15147" stop-color="#59bed1"/>
      <stop offset="0.56336" stop-color="#1e8ec4"/>
      <stop offset="0.99438" stop-color="#005b97"/>
    </linearGradient>
  </defs>
  <title>icon</title>
  <circle cx="50" cy="50" r="50" style="fill: url(#linear-gradient)"/>
  <circle cx="50" cy="50" r="35" style="fill: none;stroke: #fff;stroke-linecap: round;stroke-linejoin: round;stroke-width: 3px"/>
  <line x1="50" y1="19.48437" x2="50" y2="25.39062" style="fill: none;stroke: #fff;stroke-linecap: round;stroke-linejoin: round;stroke-width: 3px"/>
  <line x1="34.74219" y1="23.57269" x2="37.69531" y2="28.68766" style="fill: none;stroke: #fff;stroke-linecap: round;stroke-linejoin: round;stroke-width: 3px"/>
  <line x1="23.57269" y1="34.74219" x2="28.68766" y2="37.69531" style="fill: none;stroke: #fff;stroke-linecap: round;stroke-linejoin: round;stroke-width: 3px"/>
  <line x1="19.48438" y1="50" x2="25.39063" y2="50" style="fill: none;stroke: #fff;stroke-linecap: round;stroke-linejoin: round;stroke-width: 3px"/>
  <line x1="23.57269" y1="65.25781" x2="28.68766" y2="62.30469" style="fill: none;stroke: #fff;stroke-linecap: round;stroke-linejoin: round;stroke-width: 3px"/>
  <line x1="34.74219" y1="76.42731" x2="37.69531" y2="71.31234" style="fill: none;stroke: #fff;stroke-linecap: round;stroke-linejoin: round;stroke-width: 3px"/>
  <line x1="50" y1="80.51562" x2="50" y2="74.60937" style="fill: none;stroke: #fff;stroke-linecap: round;stroke-linejoin: round;stroke-width: 3px"/>
  <line x1="65.25781" y1="76.42731" x2="62.30469" y2="71.31234" style="fill: none;stroke: #fff;stroke-linecap: round;stroke-linejoin: round;stroke-width: 3px"/>
  <line x1="76.42731" y1="65.25781" x2="71.31234" y2="62.30469" style="fill: none;stroke: #fff;stroke-linecap: round;stroke-linejoin: round;stroke-width: 3px"/>
  <line x1="80.51563" y1="50" x2="74.60938" y2="50" style="fill: none;stroke: #fff;stroke-linecap: round;stroke-linejoin: round;stroke-width: 3px"/>
  <line x1="76.42731" y1="34.74219" x2="71.31234" y2="37.69531" style="fill: none;stroke: #fff;stroke-linecap: round;stroke-linejoin: round;stroke-width: 3px"/>
  <line x1="65.25781" y1="23.57269" x2="62.30469" y2="28.68766" style="fill: none;stroke: #fff;stroke-linecap: round;stroke-linejoin: round;stroke-width: 3px"/>
  <polygon points="50 35 37.01 42.5 50 50 62.99 42.5 50 35" style="fill: none;stroke: #fff;stroke-linecap: round;stroke-linejoin: round;stroke-width: 3px"/>
  <polygon points="37.01 57.5 50 65 50 50 37.01 42.5 37.01 57.5" style="fill: none;stroke: #fff;stroke-linecap: round;stroke-linejoin: round;stroke-width: 3px"/>
  <polygon points="62.99 57.5 62.99 42.5 50 50 50 65 62.99 57.5" style="fill: none;stroke: #fff;stroke-linecap: round;stroke-linejoin: round;stroke-width: 3px"/>
</svg>
